<?xml version="1.0" standalone="no"?>
<!DOCTYPE svg PUBLIC "-//W3C//DTD SVG 20010904//EN"
 "http://www.w3.org/TR/2001/REC-SVG-20010904/DTD/svg10.dtd">
<svg version="1.0" xmlns="http://www.w3.org/2000/svg"
 width="1218.000000pt" height="727.000000pt" viewBox="0 0 1218.000000 727.000000"
 preserveAspectRatio="xMidYMid meet">
<metadata>
Created by potrace 1.13, written by Peter Selinger 2001-2015
</metadata>
<g transform="translate(0.000000,727.000000) scale(0.100000,-0.100000)"
fill="#000000" stroke="none">
<path d="M7745 5354 c-67 -17 -74 -25 -216 -251 -153 -243 -156 -250 -88 -265
37 -9 124 -1 151 13 23 12 358 445 358 462 0 8 -7 20 -15 27 -15 12 -155 23
-190 14z"/>
<path d="M3383 5181 c-29 -3 -60 -14 -69 -23 -20 -20 -765 -2083 -766 -2121
-1 -41 12 -49 90 -55 81 -5 152 3 177 22 10 7 55 123 109 282 l92 269 456 3
c427 2 456 1 463 -15 4 -10 42 -117 85 -238 114 -321 105 -303 154 -316 50
-14 221 -8 237 8 7 7 12 25 11 40 -1 23 -696 1967 -747 2089 -8 19 -25 38 -38
43 -34 13 -192 21 -254 12z m279 -843 l186 -533 -370 -3 c-204 -1 -373 0 -376
2 -6 7 359 1066 368 1066 3 0 90 -240 192 -532z"/>
<path d="M4750 4997 l-25 -13 -3 -192 -2 -192 -106 0 c-58 0 -114 -5 -124 -10
-38 -20 -50 -144 -20 -200 10 -18 22 -20 108 -20 53 0 107 -3 119 -6 l22 -6 3
-521 c4 -560 6 -578 59 -682 73 -143 255 -215 466 -186 108 15 170 41 183 76
16 42 13 171 -5 188 -13 13 -23 12 -90 -9 -136 -43 -244 -22 -289 55 -42 72
-46 123 -46 612 l0 466 203 7 c242 8 237 5 237 122 0 116 4 114 -240 114
l-200 0 0 183 c0 100 -4 187 -8 194 -4 6 -20 17 -35 22 -39 15 -177 13 -207
-2z"/>
<path d="M6397 4620 c-88 -22 -189 -101 -278 -217 l-44 -56 -7 114 c-6 91 -11
116 -25 126 -10 8 -50 13 -105 13 -143 0 -128 93 -128 -809 0 -862 -6 -794 76
-807 60 -9 170 0 189 16 13 11 15 83 15 522 l0 510 61 89 c77 112 159 196 217
221 58 26 138 25 227 -2 l69 -22 18 22 c15 18 18 41 18 119 0 62 -5 103 -12
114 -30 39 -208 68 -291 47z"/>
<path d="M7372 4620 c-105 -15 -223 -49 -307 -90 -123 -60 -145 -85 -145 -170
0 -65 17 -104 48 -108 12 -2 72 21 135 52 140 70 240 96 363 96 254 0 354
-111 354 -396 l0 -71 -187 -7 c-358 -13 -522 -59 -655 -184 -90 -84 -128 -181
-128 -323 0 -211 112 -368 309 -430 93 -29 254 -36 345 -15 89 21 210 84 283
148 l58 51 5 -82 c4 -57 10 -85 20 -91 40 -25 174 -25 204 -1 14 12 16 80 16
595 0 637 -3 665 -59 781 -57 115 -165 195 -312 230 -80 19 -264 27 -347 15z
m446 -1056 l2 -161 -80 -76 c-50 -48 -106 -88 -147 -109 -58 -28 -79 -33 -163
-36 -119 -5 -179 16 -239 85 -86 97 -78 267 16 354 85 79 215 108 478 105
l130 -1 3 -161z"/>
<path d="M8935 4616 c-197 -39 -327 -135 -388 -290 -28 -69 -30 -219 -4 -294
50 -143 170 -235 438 -337 162 -62 250 -120 285 -186 16 -32 19 -135 5 -172
-17 -44 -75 -100 -129 -124 -36 -16 -81 -25 -140 -29 -122 -8 -210 12 -347 81
-116 58 -150 66 -159 38 -24 -86 -16 -169 20 -212 30 -36 111 -75 217 -103
109 -30 346 -32 447 -4 211 58 342 195 372 388 21 142 -14 261 -107 354 -64
64 -145 109 -324 180 -256 102 -331 166 -331 283 1 147 97 221 288 221 94 0
197 -29 289 -81 65 -36 90 -37 103 -3 15 37 12 130 -4 168 -38 91 -338 160
-531 122z"/>
</g>
</svg>
